<svg width="157" height="71" viewBox="0 0 157 71" fill="none" xmlns="http://www.w3.org/2000/svg">
<path d="M30.1208 35.5177L30.6767 32.7383L37.6252 24.7707H42.2575L35.5128 32.7383L33.4561 32.1268H43.4989L42.8134 35.5177H30.1208ZM36.4022 37.7412L36.8469 35.5177L37.7363 32.1268L38.1255 30.1442H42.1648L40.6454 37.7412H36.4022ZM44.5165 37.7412V24.7707H50.9091C52.3543 24.7707 53.6267 25.0363 54.7261 25.5675C55.8255 26.0863 56.684 26.8275 57.3017 27.791C57.9193 28.7545 58.2281 29.9033 58.2281 31.2374C58.2281 32.5839 57.9193 33.7451 57.3017 34.7209C56.684 35.6845 55.8255 36.4318 54.7261 36.963C53.6267 37.4818 52.3543 37.7412 50.9091 37.7412H44.5165ZM48.8894 34.3318H50.7238C51.3414 34.3318 51.8788 34.2145 52.3358 33.9798C52.8052 33.7451 53.1696 33.3992 53.429 32.9421C53.6885 32.4727 53.8182 31.9045 53.8182 31.2374C53.8182 30.5827 53.6885 30.0269 53.429 29.5698C53.1696 29.1127 52.8052 28.7669 52.3358 28.5322C51.8788 28.2975 51.3414 28.1801 50.7238 28.1801H48.8894V34.3318ZM59.8248 37.7412V24.7707H64.1977V37.7412H59.8248ZM65.8396 37.7412V35.0545L73.066 26.6422L73.6034 28.1616H66.0249V24.7707H77.4575V27.4575L70.231 35.8698L69.6937 34.3504H77.7539V37.7412H65.8396ZM91.3049 38.0377C90.2549 38.0377 89.2852 37.8771 88.3958 37.5559C87.5188 37.2224 86.7529 36.753 86.0982 36.1477C85.4558 35.5424 84.9555 34.8259 84.5973 33.9983C84.2391 33.1707 84.06 32.2565 84.06 31.256C84.06 30.2554 84.2391 29.3413 84.5973 28.5136C84.9555 27.686 85.462 26.9695 86.1167 26.3642C86.7714 25.7589 87.5435 25.2957 88.4329 24.9745C89.3346 24.641 90.3228 24.4743 91.3975 24.4743C92.6822 24.4743 93.8249 24.6904 94.8255 25.1228C95.8384 25.5551 96.6722 26.1728 97.3269 26.9757L94.529 29.4401C94.1214 28.9707 93.6766 28.6186 93.1949 28.3839C92.7255 28.1369 92.2005 28.0133 91.6199 28.0133C91.1381 28.0133 90.6996 28.0875 90.3043 28.2357C89.9214 28.3839 89.594 28.6001 89.3223 28.8842C89.0505 29.1683 88.8405 29.508 88.6923 29.9033C88.544 30.2986 88.4699 30.7495 88.4699 31.256C88.4699 31.7377 88.544 32.1824 88.6923 32.5901C88.8405 32.9854 89.0505 33.3251 89.3223 33.6092C89.594 33.8933 89.9152 34.1156 90.2858 34.2762C90.6687 34.4245 91.0949 34.4986 91.5643 34.4986C92.0584 34.4986 92.5402 34.4183 93.0096 34.2577C93.479 34.0848 93.9793 33.7945 94.5105 33.3868L96.9563 36.3886C96.1657 36.9197 95.264 37.3274 94.2511 37.6115C93.2381 37.8956 92.2561 38.0377 91.3049 38.0377ZM93.1578 35.8327V30.9039H96.9563V36.3886L93.1578 35.8327ZM98.8195 37.7412V24.7707H105.064C106.274 24.7707 107.318 24.9684 108.195 25.3637C109.085 25.7589 109.77 26.3272 110.252 27.0683C110.734 27.7972 110.975 28.6619 110.975 29.6624C110.975 30.663 110.734 31.5277 110.252 32.2565C109.77 32.973 109.085 33.5227 108.195 33.9057C107.318 34.2886 106.274 34.4801 105.064 34.4801H101.247L103.192 32.6827V37.7412H98.8195ZM106.583 37.7412L103.396 33.0162H108.029L111.253 37.7412H106.583ZM103.192 33.1645L101.247 31.1818H104.786C105.391 31.1818 105.836 31.046 106.12 30.7742C106.417 30.5024 106.565 30.1319 106.565 29.6624C106.565 29.193 106.417 28.8225 106.12 28.5507C105.836 28.2789 105.391 28.143 104.786 28.143H101.247L103.192 26.1604V33.1645ZM119.426 38.0377C118.376 38.0377 117.4 37.8709 116.499 37.5374C115.609 37.2039 114.837 36.7345 114.182 36.1292C113.528 35.5115 113.015 34.7889 112.645 33.9612C112.286 33.1336 112.107 32.2318 112.107 31.256C112.107 30.2677 112.286 29.366 112.645 28.5507C113.015 27.7231 113.528 27.0066 114.182 26.4013C114.837 25.7837 115.609 25.3081 116.499 24.9745C117.4 24.641 118.376 24.4743 119.426 24.4743C120.489 24.4743 121.464 24.641 122.354 24.9745C123.243 25.3081 124.015 25.7837 124.67 26.4013C125.325 27.0066 125.831 27.7231 126.189 28.5507C126.56 29.366 126.745 30.2677 126.745 31.256C126.745 32.2318 126.56 33.1336 126.189 33.9612C125.831 34.7889 125.325 35.5115 124.67 36.1292C124.015 36.7345 123.243 37.2039 122.354 37.5374C121.464 37.8709 120.489 38.0377 119.426 38.0377ZM119.426 34.4986C119.834 34.4986 120.211 34.4245 120.557 34.2762C120.915 34.128 121.224 33.918 121.483 33.6462C121.755 33.3621 121.965 33.0224 122.113 32.6271C122.261 32.2195 122.335 31.7624 122.335 31.256C122.335 30.7495 122.261 30.2986 122.113 29.9033C121.965 29.4957 121.755 29.156 121.483 28.8842C121.224 28.6001 120.915 28.3839 120.557 28.2357C120.211 28.0875 119.834 28.0133 119.426 28.0133C119.019 28.0133 118.636 28.0875 118.277 28.2357C117.932 28.3839 117.623 28.6001 117.351 28.8842C117.092 29.156 116.888 29.4957 116.74 29.9033C116.591 30.2986 116.517 30.7495 116.517 31.256C116.517 31.7624 116.591 32.2195 116.74 32.6271C116.888 33.0224 117.092 33.3621 117.351 33.6462C117.623 33.918 117.932 34.128 118.277 34.2762C118.636 34.4245 119.019 34.4986 119.426 34.4986ZM134.54 38.0377C132.551 38.0377 131.001 37.5003 129.889 36.4256C128.777 35.3509 128.221 33.8439 128.221 31.9045V24.7707H132.594V31.7748C132.594 32.763 132.773 33.4671 133.132 33.8871C133.49 34.2948 133.972 34.4986 134.577 34.4986C135.194 34.4986 135.676 34.2948 136.022 33.8871C136.38 33.4671 136.559 32.763 136.559 31.7748V24.7707H140.858V31.9045C140.858 33.8439 140.302 35.3509 139.191 36.4256C138.079 37.5003 136.529 38.0377 134.54 38.0377ZM142.863 37.7412V24.7707H149.107C150.318 24.7707 151.362 24.9684 152.239 25.3637C153.128 25.7589 153.814 26.3272 154.295 27.0683C154.777 27.7972 155.018 28.6619 155.018 29.6624C155.018 30.663 154.777 31.5277 154.295 32.2565C153.814 32.9854 153.128 33.5536 152.239 33.9612C151.362 34.3565 150.318 34.5542 149.107 34.5542H145.29L147.236 32.6827V37.7412H142.863ZM147.236 33.1645L145.29 31.1818H148.829C149.434 31.1818 149.879 31.046 150.163 30.7742C150.46 30.5024 150.608 30.1319 150.608 29.6624C150.608 29.193 150.46 28.8225 150.163 28.5507C149.879 28.2789 149.434 28.143 148.829 28.143H145.29L147.236 26.1604V33.1645Z" fill="#E6EFEA"/>
<path d="M36.0354 50.1139C35.0175 50.1139 34.1528 49.936 33.4413 49.5803C32.7297 49.2245 32.1862 48.7255 31.8107 48.0831C31.445 47.4408 31.2622 46.6946 31.2622 45.8448C31.2622 45.0048 31.4055 44.2092 31.6921 43.4582C31.9787 42.7071 32.3937 42.0401 32.9373 41.457C33.4808 40.874 34.138 40.4194 34.9088 40.0933C35.6895 39.7573 36.569 39.5893 37.5473 39.5893C38.3577 39.5893 39.0742 39.7128 39.6967 39.9599C40.3193 40.2069 40.8036 40.5577 41.1494 41.0123L40.6158 41.5015C40.2798 41.0963 39.8499 40.7949 39.3262 40.5973C38.8123 40.3897 38.1996 40.286 37.488 40.286C36.6481 40.286 35.8921 40.4342 35.2201 40.7307C34.5481 41.0173 33.9749 41.4175 33.5005 41.9314C33.0262 42.4354 32.6606 43.0234 32.4036 43.6954C32.1467 44.3575 32.0182 45.0641 32.0182 45.8151C32.0182 46.5266 32.1714 47.1542 32.4777 47.6977C32.7841 48.2412 33.2387 48.6662 33.8415 48.9725C34.4542 49.269 35.2052 49.4172 36.0946 49.4172C36.8062 49.4172 37.4485 49.3134 38.0217 49.1059C38.6047 48.8885 39.1038 48.5772 39.5189 48.172L39.9784 48.6909C39.5337 49.1356 38.9654 49.4864 38.2737 49.7433C37.5819 49.9904 36.8358 50.1139 36.0354 50.1139ZM44.0905 50.0991C43.3987 50.0991 42.7959 49.9706 42.282 49.7137C41.7682 49.4469 41.3679 49.0713 41.0813 48.5871C40.8046 48.1029 40.6663 47.5346 40.6663 46.8824C40.6663 45.993 40.854 45.2024 41.2296 44.5107C41.615 43.809 42.1387 43.2556 42.8009 42.8504C43.4728 42.4453 44.2387 42.2427 45.0985 42.2427C45.8001 42.2427 46.4029 42.3761 46.9069 42.6429C47.4208 42.8998 47.8161 43.2704 48.0928 43.7547C48.3794 44.229 48.5227 44.7972 48.5227 45.4594C48.5227 46.3488 48.33 47.1443 47.9446 47.8459C47.5691 48.5377 47.0453 49.0862 46.3733 49.4913C45.7112 49.8965 44.9502 50.0991 44.0905 50.0991ZM44.1498 49.432C44.8514 49.432 45.474 49.264 46.0175 48.928C46.5611 48.592 46.9909 48.1276 47.3072 47.5346C47.6234 46.9318 47.7815 46.2549 47.7815 45.5038C47.7815 44.6737 47.5394 44.0363 47.0552 43.5916C46.5808 43.137 45.9088 42.9097 45.0392 42.9097C44.3474 42.9097 43.7248 43.0827 43.1714 43.4286C42.6279 43.7645 42.198 44.229 41.8818 44.822C41.5656 45.4149 41.4075 46.0869 41.4075 46.8379C41.4075 47.6582 41.6446 48.2956 42.119 48.7502C42.6032 49.2047 43.2801 49.432 44.1498 49.432ZM60.4721 42.2427C61.1737 42.2427 61.737 42.381 62.162 42.6577C62.5968 42.9246 62.8933 43.31 63.0514 43.814C63.2095 44.3081 63.2194 44.8911 63.081 45.5631L62.1768 50.0398H61.4356L62.3399 45.5631C62.498 44.7429 62.409 44.0956 62.073 43.6213C61.7469 43.1469 61.1639 42.9097 60.3239 42.9097C59.4938 42.9097 58.7921 43.142 58.2189 43.6064C57.6458 44.061 57.2653 44.7429 57.0775 45.6521L56.1881 50.0398H55.447L56.3512 45.5631C56.5093 44.7429 56.4204 44.0956 56.0844 43.6213C55.7583 43.1469 55.1752 42.9097 54.3352 42.9097C53.4853 42.9097 52.7738 43.1568 52.2006 43.6509C51.6275 44.145 51.2421 44.8714 51.0444 45.8299L50.1995 50.0398H49.4583L50.9999 42.302H51.7263L51.2816 44.5403L51.0889 44.3476C51.4545 43.6163 51.9338 43.0827 52.5268 42.7467C53.1197 42.4107 53.7867 42.2427 54.5279 42.2427C55.0813 42.2427 55.5507 42.3366 55.9361 42.5243C56.3314 42.7121 56.6328 42.9789 56.8404 43.3248C57.0479 43.6707 57.1615 44.0857 57.1813 44.57L56.8107 44.481C57.1862 43.73 57.6902 43.1716 58.3227 42.806C58.9552 42.4304 59.6716 42.2427 60.4721 42.2427ZM68.8985 50.0991C68.2265 50.0991 67.6484 49.9805 67.1642 49.7433C66.6898 49.4963 66.3291 49.1454 66.0821 48.6909C65.835 48.2264 65.7065 47.668 65.6967 47.0158C65.6967 46.0869 65.8696 45.2667 66.2155 44.5551C66.5712 43.8337 67.0654 43.2704 67.6978 42.8653C68.3402 42.4502 69.0863 42.2427 69.9362 42.2427C70.6082 42.2427 71.1912 42.3711 71.6853 42.6281C72.1893 42.885 72.5797 43.2556 72.8564 43.7398C73.143 44.2241 73.2863 44.7972 73.2863 45.4594C73.2863 46.1314 73.1776 46.749 72.9601 47.3123C72.7427 47.8756 72.4364 48.3647 72.0411 48.7798C71.6557 49.1949 71.1962 49.521 70.6625 49.7581C70.1289 49.9854 69.5409 50.0991 68.8985 50.0991ZM64.1402 52.9155L66.26 42.302H66.9863L66.4971 44.7182L66.0821 46.0671L65.9783 47.4902L64.8814 52.9155H64.1402ZM68.9133 49.432C69.615 49.432 70.2376 49.264 70.7811 48.928C71.3246 48.592 71.7496 48.1276 72.0559 47.5346C72.3721 46.9318 72.5303 46.2549 72.5303 45.5038C72.5303 44.6737 72.2881 44.0363 71.8039 43.5916C71.3296 43.137 70.6576 42.9097 69.7879 42.9097C69.0962 42.9097 68.4736 43.0777 67.9202 43.4137C67.3767 43.7497 66.9468 44.2142 66.6305 44.8071C66.3143 45.4001 66.1562 46.077 66.1562 46.8379C66.1562 47.6582 66.3983 48.2956 66.8825 48.7502C67.3668 49.2047 68.0437 49.432 68.9133 49.432ZM77.4191 50.0991C76.757 50.0991 76.1739 49.9706 75.6699 49.7137C75.1659 49.4567 74.7756 49.0862 74.4989 48.6019C74.2222 48.1177 74.0838 47.5445 74.0838 46.8824C74.0838 46.2104 74.1876 45.5928 74.3951 45.0295C74.6125 44.4662 74.9189 43.977 75.3142 43.562C75.7095 43.1469 76.1739 42.8257 76.7076 42.5984C77.2412 42.3613 77.8243 42.2427 78.4567 42.2427C79.1386 42.2427 79.7167 42.3662 80.1911 42.6133C80.6654 42.8504 81.0261 43.2013 81.2732 43.6657C81.5301 44.1203 81.6586 44.6737 81.6586 45.3259C81.6685 46.245 81.4955 47.0652 81.1398 47.7866C80.7939 48.508 80.2998 49.0763 79.6574 49.4913C79.025 49.8965 78.2789 50.0991 77.4191 50.0991ZM77.5673 49.432C78.269 49.432 78.8916 49.264 79.4351 48.928C79.9786 48.592 80.4085 48.1276 80.7247 47.5346C81.0409 46.9318 81.1991 46.2549 81.1991 45.5038C81.1991 44.6737 80.957 44.0363 80.4727 43.5916C79.9984 43.137 79.3264 42.9097 78.4567 42.9097C77.765 42.9097 77.1424 43.0827 76.589 43.4286C76.0455 43.7645 75.6156 44.229 75.2993 44.822C74.9831 45.4149 74.825 46.0869 74.825 46.8379C74.825 47.6582 75.0622 48.2956 75.5365 48.7502C76.0208 49.2047 76.6977 49.432 77.5673 49.432ZM80.3838 50.0398L80.8581 47.6236L81.288 46.2746L81.3918 44.8516L81.8958 42.302H82.6369L81.0953 50.0398H80.3838ZM88.8599 42.2427C89.5615 42.2427 90.1298 42.381 90.5646 42.6577C91.0093 42.9246 91.3107 43.31 91.4688 43.814C91.6368 44.3081 91.6516 44.8911 91.5133 45.5631L90.6239 50.0398H89.8827L90.7721 45.5631C90.9401 44.7429 90.8462 44.0956 90.4905 43.6213C90.1446 43.1469 89.5368 42.9097 88.6672 42.9097C87.7877 42.9097 87.0514 43.1568 86.4585 43.6509C85.8655 44.1351 85.4703 44.8615 85.2726 45.8299L84.4277 50.0398H83.6865L85.2281 42.302H85.9545L85.5098 44.5403L85.3171 44.3476C85.6827 43.6163 86.1719 43.0827 86.7846 42.7467C87.3973 42.4107 88.0891 42.2427 88.8599 42.2427ZM92.3595 52.9748C92.0136 52.9748 91.6825 52.9155 91.3663 52.797C91.0501 52.6784 90.7981 52.5104 90.6103 52.293L91.0402 51.7445C91.2082 51.9421 91.4108 52.0854 91.648 52.1744C91.8752 52.2732 92.1371 52.3226 92.4336 52.3226C92.7795 52.3226 93.0957 52.2287 93.3823 52.041C93.6788 51.8532 93.995 51.5024 94.331 50.9885L95.1463 49.7581L95.2649 49.6247L99.9935 42.302H100.764L94.9832 51.1812C94.6868 51.6358 94.4002 51.9915 94.1235 52.2485C93.8566 52.5153 93.5799 52.7031 93.2934 52.8118C93.0167 52.9205 92.7054 52.9748 92.3595 52.9748ZM95.0425 50.2325L93.0265 42.302H93.7825L95.6058 49.5803L95.0425 50.2325ZM103.85 50.0398L105.925 39.6634H106.681L104.739 49.3579H110.713L110.565 50.0398H103.85ZM111.75 50.0398L113.292 42.302H114.033L112.491 50.0398H111.75ZM114.122 40.4194C113.964 40.4194 113.83 40.365 113.722 40.2563C113.613 40.1476 113.559 40.0192 113.559 39.8709C113.559 39.693 113.618 39.5399 113.737 39.4114C113.865 39.2829 114.023 39.2187 114.211 39.2187C114.379 39.2187 114.517 39.2731 114.626 39.3818C114.735 39.4905 114.789 39.6189 114.789 39.7672C114.789 39.9549 114.725 40.113 114.596 40.2415C114.468 40.3601 114.31 40.4194 114.122 40.4194ZM126.11 42.2427C126.812 42.2427 127.375 42.381 127.8 42.6577C128.235 42.9246 128.531 43.31 128.69 43.814C128.848 44.3081 128.858 44.8911 128.719 45.5631L127.815 50.0398H127.074L127.978 45.5631C128.136 44.7429 128.047 44.0956 127.711 43.6213C127.385 43.1469 126.802 42.9097 125.962 42.9097C125.132 42.9097 124.43 43.142 123.857 43.6064C123.284 44.061 122.904 44.7429 122.716 45.6521L121.826 50.0398H121.085L121.989 45.5631C122.148 44.7429 122.059 44.0956 121.723 43.6213C121.396 43.1469 120.813 42.9097 119.973 42.9097C119.124 42.9097 118.412 43.1568 117.839 43.6509C117.266 44.145 116.88 44.8714 116.683 45.8299L115.838 50.0398H115.097L116.638 42.302H117.365L116.92 44.5403L116.727 44.3476C117.093 43.6163 117.572 43.0827 118.165 42.7467C118.758 42.4107 119.425 42.2427 120.166 42.2427C120.72 42.2427 121.189 42.3366 121.574 42.5243C121.97 42.7121 122.271 42.9789 122.479 43.3248C122.686 43.6707 122.8 44.0857 122.82 44.57L122.449 44.481C122.824 43.73 123.328 43.1716 123.961 42.806C124.593 42.4304 125.31 42.2427 126.11 42.2427ZM130.357 50.0398L131.898 42.302H132.639L131.098 50.0398H130.357ZM132.728 40.4194C132.57 40.4194 132.437 40.365 132.328 40.2563C132.219 40.1476 132.165 40.0192 132.165 39.8709C132.165 39.693 132.224 39.5399 132.343 39.4114C132.471 39.2829 132.629 39.2187 132.817 39.2187C132.985 39.2187 133.124 39.2731 133.232 39.3818C133.341 39.4905 133.395 39.6189 133.395 39.7672C133.395 39.9549 133.331 40.113 133.203 40.2415C133.074 40.3601 132.916 40.4194 132.728 40.4194ZM136 50.0991C135.576 50.0991 135.215 50.0101 134.918 49.8323C134.632 49.6544 134.434 49.3974 134.325 49.0614C134.217 48.7255 134.207 48.3252 134.296 47.8608L135.748 40.6121H136.49L135.052 47.8015C134.943 48.345 134.978 48.76 135.156 49.0466C135.343 49.3233 135.684 49.4617 136.178 49.4617C136.415 49.4617 136.638 49.4271 136.845 49.3579C137.063 49.2789 137.26 49.1702 137.438 49.0318L137.661 49.5803C137.423 49.768 137.157 49.9014 136.86 49.9805C136.574 50.0596 136.287 50.0991 136 50.0991ZM133.851 42.9394L133.97 42.302H138.609L138.491 42.9394H133.851ZM142.225 50.0991C141.503 50.0991 140.876 49.9706 140.342 49.7137C139.808 49.4469 139.398 49.0713 139.112 48.5871C138.835 48.1029 138.697 47.5248 138.697 46.8528C138.697 45.9732 138.879 45.1876 139.245 44.4958C139.621 43.8041 140.125 43.2556 140.757 42.8504C141.399 42.4453 142.121 42.2427 142.921 42.2427C143.603 42.2427 144.186 42.3711 144.67 42.6281C145.155 42.885 145.53 43.2556 145.797 43.7398C146.074 44.2142 146.212 44.7923 146.212 45.4742C146.212 45.6224 146.202 45.7707 146.182 45.9189C146.163 46.0671 146.143 46.2055 146.123 46.3339H139.26L139.364 45.7558H145.767L145.471 46.0078C145.58 45.3259 145.535 44.7577 145.337 44.3031C145.14 43.8387 144.829 43.4878 144.404 43.2507C143.989 43.0036 143.489 42.8801 142.906 42.8801C142.234 42.8801 141.632 43.053 141.098 43.3989C140.574 43.7349 140.164 44.1994 139.868 44.7923C139.571 45.3754 139.423 46.0523 139.423 46.8231C139.423 47.6631 139.665 48.3104 140.149 48.765C140.633 49.2097 141.345 49.432 142.284 49.432C142.837 49.432 143.341 49.3431 143.796 49.1652C144.26 48.9774 144.641 48.7205 144.937 48.3944L145.278 48.9132C144.942 49.2789 144.502 49.5704 143.959 49.7878C143.425 49.9953 142.847 50.0991 142.225 50.0991ZM150.372 50.0991C149.71 50.0991 149.127 49.9706 148.623 49.7137C148.119 49.4567 147.729 49.0862 147.452 48.6019C147.175 48.1177 147.037 47.5445 147.037 46.8824C147.037 46.2104 147.141 45.5928 147.348 45.0295C147.566 44.4662 147.872 43.977 148.267 43.562C148.663 43.1469 149.127 42.8257 149.661 42.5984C150.194 42.3613 150.777 42.2427 151.41 42.2427C152.092 42.2427 152.67 42.3662 153.144 42.6133C153.619 42.8504 153.979 43.2013 154.226 43.6657C154.483 44.1203 154.612 44.6737 154.612 45.3259C154.612 46.0177 154.513 46.6551 154.315 47.2382C154.118 47.8212 153.831 48.3252 153.456 48.7502C153.08 49.1751 152.63 49.5062 152.107 49.7433C151.593 49.9805 151.015 50.0991 150.372 50.0991ZM150.521 49.432C151.222 49.432 151.845 49.264 152.388 48.928C152.932 48.592 153.362 48.1276 153.678 47.5346C153.994 46.9318 154.152 46.2549 154.152 45.5038C154.152 44.6737 153.91 44.0363 153.426 43.5916C152.952 43.137 152.28 42.9097 151.41 42.9097C150.718 42.9097 150.096 43.0827 149.542 43.4286C148.999 43.7645 148.569 44.229 148.253 44.822C147.936 45.4149 147.778 46.0869 147.778 46.8379C147.778 47.6582 148.015 48.2956 148.49 48.7502C148.974 49.2047 149.651 49.432 150.521 49.432ZM153.337 50.0398L153.811 47.6236L154.226 46.2746L154.345 44.8516L155.501 39.0408H156.242L154.049 50.0398H153.337Z" fill="#E6EFEA"/>
<path d="M1.34036 43.806C2.45543 48.275 4.43984 52.4805 7.18026 56.1826C9.92068 59.8846 13.3634 63.0106 17.312 65.3821C21.2605 67.7537 25.6375 69.3242 30.1931 70.0041C34.7486 70.684 39.3934 70.46 43.8623 69.3448C47.6705 68.4 51.2924 66.8211 54.5765 64.6742C54.5162 64.5655 54.4505 64.4598 54.3796 64.3576C53.2154 62.6325 52.6969 61.2075 51.2892 59.6724C48.3968 56.5327 44.0179 54.9054 40.1142 55.9483C38.3799 56.4186 36.7705 57.3334 34.9933 57.6194C33.2161 57.9053 31.0908 57.3347 30.2226 55.5975C28.376 56.3234 26.934 57.8322 25.3496 59.062C23.7652 60.2919 21.8064 61.2989 19.8536 60.7968C18.204 60.3749 16.8627 58.4094 17.1638 56.7767C16.6119 58.1314 16.5353 57.7372 12.7815 57.7123C10.3459 57.6983 7.24126 50.2562 10.3423 49.1629C12.6308 48.3568 12.9734 44.8963 14.6867 43.105C16.4 41.3138 18.1575 39.4839 19.1433 37.1322C20.3908 34.1288 20.2207 30.6409 20.7688 27.3793C21.3169 24.1176 23.0634 20.6451 26.1185 20.1316C21.3887 18.7843 18.3268 12.6026 19.9887 7.8127C21.5902 12.9915 27.7451 16.0457 32.305 13.9242C28.3533 11.9939 26.2993 6.40519 28.0242 2.26743C31.0647 8.54172 36.5576 13.4673 42.8315 15.5462C43.2328 13.346 45.0253 11.5095 47.1092 11.3482C49.1931 11.187 51.4074 12.8552 51.8246 15.0834C52.2418 17.3115 50.6452 19.7131 48.5417 19.814C52.3636 20.9136 56.4406 20.7297 60.148 19.2904C61.807 18.6008 63.4169 17.7987 64.9665 16.8898C65.0299 16.8574 65.0901 16.8218 65.1535 16.7831C61.2292 10.4889 55.4116 5.60005 48.5357 2.81828C41.6598 0.0365227 34.0793 -0.495048 26.8825 1.29989C17.8603 3.5521 10.1017 9.2947 5.31208 17.2654C0.522471 25.236 -0.906123 34.7824 1.34036 43.806V43.806Z" fill="#00BD65"/>
</svg>
